<svg width="830" height="6" viewBox="0 0 830 6" fill="none" xmlns="http://www.w3.org/2000/svg">
<circle cx="81.0111" cy="3" r="3" fill="#C4C4C4"/>
<circle cx="107.011" cy="3" r="3" fill="#C4C4C4"/>
<circle cx="55.0111" cy="3" r="3" fill="#C4C4C4"/>
<circle cx="29.0111" cy="3" r="3" fill="#C4C4C4"/>
<circle cx="3.01111" cy="3" r="3" fill="#C4C4C4"/>
<circle cx="321" cy="3" r="3" fill="#C4C4C4"/>
<circle cx="347" cy="3" r="3" fill="#C4C4C4"/>
<circle cx="295" cy="3" r="3" fill="#C4C4C4"/>
<circle cx="269" cy="3" r="3" fill="#C4C4C4"/>
<circle cx="243" cy="3" r="3" fill="#C4C4C4"/>
<circle cx="561" cy="3" r="3" fill="#C4C4C4"/>
<circle cx="587" cy="3" r="3" fill="#C4C4C4"/>
<circle cx="535" cy="3" r="3" fill="#C4C4C4"/>
<circle cx="509" cy="3" r="3" fill="#C4C4C4"/>
<circle cx="483" cy="3" r="3" fill="#C4C4C4"/>
<circle cx="800.972" cy="3" r="3" fill="#C4C4C4"/>
<circle cx="826.972" cy="3" r="3" fill="#C4C4C4"/>
<circle cx="774.972" cy="3" r="3" fill="#C4C4C4"/>
<circle cx="748.972" cy="3" r="3" fill="#C4C4C4"/>
<circle cx="722.972" cy="3" r="3" fill="#C4C4C4"/>
</svg>
